<?xml version="1.0" encoding="UTF-8"?>
<svg width="18" height="18" version="1.1" viewBox="0 0 18 18" xmlns="http://www.w3.org/2000/svg">
 <path d="m9.09 15.559-0.09 0.087194-0.099-0.087194c-4.275-3.758-7.101-6.2431-7.101-8.7629 0-1.7439 1.35-3.0518 3.15-3.0518 1.386 0 2.736 0.87193 3.213 2.0578h1.674c0.477-1.1858 1.827-2.0578 3.213-2.0578 1.8 0 3.15 1.3079 3.15 3.0518 0 2.5199-2.826 5.0049-7.11 8.7629m3.96-13.559c-1.566 0-3.069 0.70627-4.05 1.8136-0.981-1.1074-2.484-1.8136-4.05-1.8136-2.772 0-4.95 2.1014-4.95 4.7956 0 3.2872 3.06 5.9815 7.695 10.053l1.305 1.151 1.305-1.151c4.635-4.0719 7.695-6.7662 7.695-10.053 0-2.6943-2.178-4.7956-4.95-4.7956z" fill="#fff" stroke-width=".9"/>
</svg>
