<svg width="221" height="116" viewBox="0 0 221 116" fill="none" xmlns="http://www.w3.org/2000/svg">
<path d="M14.4716 53.0141L14.1624 34.3646L20.3857 33.4622L20.6141 47.2362L28.9471 46.028L29.0279 50.9035L14.4716 53.0141ZM30.7469 50.6543L30.4376 32.0048L36.661 31.1024L36.9702 49.7519L30.7469 50.6543ZM39.9661 49.3176L39.6569 30.668L44.7727 29.9263L52.3582 41.0312L49.6684 41.4212L56.6392 28.2057L61.755 27.464L62.117 46.1058L56.4474 46.9279L56.2286 36.9181L57.1252 36.7881L52.3586 45.8382L49.6161 46.2359L44.362 38.6386L45.4696 38.4781L45.6357 48.4955L39.9661 49.3176ZM65.1259 45.6696L64.8166 27.0201L71.04 26.1177L71.3492 44.7672L65.1259 45.6696ZM78.3534 43.7517L78.125 29.9777L72.7191 30.7615L72.6382 25.886L89.6733 23.416L89.7542 28.2915L84.3483 29.0753L84.5767 42.8493L78.3534 43.7517ZM97.1005 29.2827L105.328 28.0898L105.403 32.619L97.1756 33.8119L97.1005 29.2827ZM97.6382 36.2018L106.868 34.8636L106.946 39.6059L91.599 41.8312L91.2897 23.1816L106.294 21.0061L106.373 25.7484L97.4862 27.0369L97.6382 36.2018ZM109.342 39.2585L109.033 20.609L118.131 19.2899C120.187 18.9917 122.005 19.111 123.582 19.6479C125.159 20.167 126.398 21.0555 127.3 22.3135C128.202 23.5714 128.669 25.1595 128.701 27.0777C128.733 29.0137 128.321 30.747 127.465 32.2776C126.609 33.7905 125.405 35.0422 123.853 36.0328C122.301 37.0057 120.497 37.6412 118.44 37.9394L109.342 39.2585ZM115.484 33.454L118.095 33.0755C118.974 32.948 119.736 32.6684 120.381 32.2367C121.043 31.8023 121.553 31.2298 121.912 30.5191C122.27 29.7906 122.441 28.9469 122.425 27.9877C122.409 27.0464 122.211 26.2739 121.831 25.6702C121.451 25.0666 120.924 24.6445 120.251 24.4039C119.595 24.1607 118.827 24.1028 117.948 24.2303L115.338 24.6088L115.484 33.454ZM143.042 34.3722L142.814 20.5982L137.408 21.382L137.327 16.5065L154.362 14.0365L154.443 18.912L149.037 19.6959L149.266 33.4699L143.042 34.3722ZM156.288 32.4517L155.979 13.8022L162.202 12.8998L162.511 31.5493L156.288 32.4517ZM165.507 31.115L165.198 12.4654L170.314 11.7237L177.899 22.8286L175.21 23.2186L182.18 10.0031L187.296 9.26136L187.658 27.9032L181.989 28.7253L181.77 18.7155L182.666 18.5855L177.9 27.6356L175.157 28.0333L169.903 20.436L171.011 20.2755L171.177 30.2929L165.507 31.115ZM196.169 14.9185L204.396 13.7256L204.471 18.2548L196.244 19.4477L196.169 14.9185ZM196.706 21.8376L205.936 20.4994L206.014 25.2417L190.667 27.467L190.358 8.81745L205.362 6.64189L205.441 11.3842L196.554 12.6727L196.706 21.8376Z" fill="white"/>
<path d="M31.1843 99.5544C28.1605 99.9928 25.3573 99.9185 22.7747 99.3316C20.2273 98.7395 18.0074 97.7082 16.115 96.2378C14.2221 94.7319 12.7285 92.8653 11.6342 90.6382C10.5751 88.4061 10.0223 85.8868 9.97577 83.0805C9.92865 80.2387 10.3955 77.5716 11.3762 75.0792C12.3916 72.5462 13.8166 70.2743 15.6512 68.2635C17.4852 66.2172 19.66 64.5309 22.1757 63.2048C24.7264 61.8735 27.4961 60.9912 30.4848 60.5579C33.5085 60.1194 36.2941 60.1963 38.8416 60.7883C41.389 61.3804 43.6092 62.4294 45.5021 63.9354C47.3945 65.4058 48.8702 67.2571 49.9293 69.4893C51.023 71.6809 51.5934 74.1976 51.6405 77.0394C51.6871 79.8457 51.2026 82.5153 50.1873 85.0483C49.2071 87.5762 47.8 89.8633 45.966 91.9096C44.1314 93.9205 41.9562 95.5889 39.4406 96.9151C36.925 98.2413 34.1729 99.121 31.1843 99.5544ZM30.9628 89.3847C32.1231 89.2165 33.1919 88.8478 34.1693 88.2788C35.1819 87.7047 36.0509 86.9734 36.7763 86.0848C37.5363 85.1556 38.1178 84.0921 38.5209 82.8942C38.9233 81.6607 39.1125 80.3158 39.0884 78.8594C39.0642 77.4029 38.8317 76.1369 38.391 75.0614C37.9496 73.9503 37.3357 73.0601 36.5492 72.3907C35.7973 71.6808 34.908 71.1866 33.8813 70.9081C32.8897 70.6246 31.8138 70.5669 30.6535 70.7352C29.4932 70.9034 28.4068 71.2746 27.3942 71.8487C26.4168 72.4177 25.5481 73.1668 24.7881 74.096C24.0627 74.9846 23.4988 76.0456 23.0963 77.279C22.6932 78.4769 22.5038 79.8041 22.5279 81.2605C22.5521 82.717 22.7848 84.0007 23.2262 85.1118C23.667 86.1874 24.2633 87.0801 25.0152 87.7901C25.8017 88.4594 26.6907 88.9359 27.6823 89.2194C28.709 89.4978 29.8025 89.5529 30.9628 89.3847ZM67.7149 71.9313L83.9589 69.576L84.1162 79.0606L67.8722 81.4159L67.7149 71.9313ZM68.914 93.2292L56.4673 95.0339L55.8488 57.7349L85.858 53.3837L86.0152 62.8684L68.4527 65.4148L68.914 93.2292ZM101.656 67.01L117.9 64.6548L118.057 74.1394L101.813 76.4946L101.656 67.01ZM102.855 88.308L90.4085 90.1127L89.79 52.8136L119.799 48.4625L119.956 57.9471L102.394 60.4936L102.855 88.308ZM135.353 60.0946L151.808 57.7087L151.958 66.7671L135.503 69.1529L135.353 60.0946ZM136.428 73.9327L154.887 71.2563L155.044 80.7409L124.35 85.1914L123.731 47.8924L153.74 43.5413L153.898 53.0259L136.124 55.6029L136.428 73.9327ZM159.836 80.0462L159.217 42.7471L176.991 40.1701C180.437 39.6705 183.417 39.8081 185.932 40.5828C188.483 41.3525 190.461 42.7036 191.868 44.6362C193.274 46.5332 194.001 48.9204 194.048 51.7978C194.096 54.6751 193.452 57.2611 192.115 59.5558C190.778 61.815 188.853 63.6787 186.34 65.1469C183.862 66.6101 180.9 67.5915 177.454 68.0911L166.589 69.6664L172.041 63.6948L172.283 78.2415L159.836 80.0462ZM181.934 76.8421L172.638 64.5698L185.823 62.6581L195.225 74.915L181.934 76.8421ZM172.064 65.0802L166.432 60.1817L176.506 58.7212C178.228 58.4714 179.488 57.8971 180.283 56.9983C181.114 56.0945 181.519 54.9676 181.496 53.6177C181.474 52.2679 181.034 51.2634 180.177 50.6042C179.356 49.94 178.083 49.7327 176.361 49.9825L166.287 51.4431L171.73 44.9388L172.064 65.0802ZM199.424 59.9916L196.669 37.3169L210.909 35.2522L208.917 58.6151L199.424 59.9916ZM204.416 74.1164C202.377 74.4121 200.697 74.0326 199.375 72.9779C198.053 71.8877 197.378 70.4723 197.349 68.7317C197.319 66.9556 197.945 65.3693 199.226 63.9729C200.507 62.5765 202.167 61.7304 204.206 61.4347C206.281 61.134 207.961 61.4957 209.247 62.52C210.567 63.5391 211.243 64.9368 211.272 66.7129C211.301 68.4535 210.676 70.0576 209.396 71.525C208.151 72.9518 206.491 73.8156 204.416 74.1164Z" fill="white"/>
<path d="M12.3027 107.451C77.6228 99.9087 143.679 90.7018 209.296 80.1495C148.29 90.4784 87.2933 101.103 26.703 112.039C86.0145 102.327 145.618 93.4619 204.995 85.7427" stroke="white" stroke-width="0.829303"/>
</svg>
