<?xml version="1.0" encoding="UTF-8" standalone="no"?>
<svg
   width="18"
   height="18"
   version="1.1"
   viewBox="0 0 18 18"
   xml:space="preserve"
   id="svg1568"
   sodipodi:docname="remix.svg"
   inkscape:version="1.2.2 (732a01da63, 2022-12-09)"
   xmlns:inkscape="http://www.inkscape.org/namespaces/inkscape"
   xmlns:sodipodi="http://sodipodi.sourceforge.net/DTD/sodipodi-0.dtd"
   xmlns="http://www.w3.org/2000/svg"
   xmlns:svg="http://www.w3.org/2000/svg"><defs
   id="defs1572" /><sodipodi:namedview
   id="namedview1570"
   pagecolor="#ffffff"
   bordercolor="#000000"
   borderopacity="0.25"
   inkscape:showpageshadow="2"
   inkscape:pageopacity="0.0"
   inkscape:pagecheckerboard="true"
   inkscape:deskcolor="#d1d1d1"
   showgrid="false"
   inkscape:zoom="24.291667"
   inkscape:cx="27.602058"
   inkscape:cy="4.1989709"
   inkscape:window-width="1878"
   inkscape:window-height="1205"
   inkscape:window-x="4423"
   inkscape:window-y="273"
   inkscape:window-maximized="0"
   inkscape:current-layer="svg1568" />
  
  
  
  
  
  
  
  
  
  
  
  
  
  
  
  
  
  
  
<path
   fill="#ffffff"
   d="M 7.0176541,6.0241262 3.1415651,2.3203169 C 2.0517095,1.2495302 0.4169278,2.8552567 1.5067826,3.9260442 L 5.3712777,7.6184656 Z M 10.60867,2.4680026 11.98838,3.8231912 1.4539195,14.515851 c -1.09016318,1.070484 0.5446195,2.676212 1.6347826,1.605727 L 13.634756,5.4403052 l 1.37971,1.3551882 c 0.367976,0.3543495 0.988533,0.09618 0.985506,-0.4099732 l 2e-6,-4.316104 c 0,-0.3188681 -0.255073,-0.5694073 -0.579712,-0.5694072 l -4.394201,1.8e-6 c -0.515312,-0.00297 -0.778123,0.606529 -0.417391,0.9679918 z M 11.274841,10.317442 9.6400586,11.92317 12,14.16542 10.608696,15.531997 c -0.360761,0.361436 -0.09792,0.970965 0.417391,0.967992 l 4.394203,1e-6 C 15.744928,16.49999 16,16.249451 16,15.930582 v -4.316103 c 0,-0.512468 -0.62609,-0.763002 -0.985507,-0.398585 l -1.37971,1.355187 z"
   id="path9190"
   sodipodi:nodetypes="ccccccccccccsscccccccsssccc"
   style="stroke-width:1.14907" /></svg>
