<?xml version="1.0" encoding="UTF-8"?>
<svg width="18" height="18" version="1.1" viewBox="0 0 18 18" xmlns="http://www.w3.org/2000/svg">
 <g fill="none" fill-rule="evenodd">
  <path d="m24 0v24h-24v-24zm-11.407 23.258-0.011 2e-3 -0.071 0.035-0.02 4e-3 -0.014-4e-3 -0.071-0.035c-0.01-4e-3 -0.019-1e-3 -0.024 5e-3l-4e-3 0.01-0.017 0.428 5e-3 0.02 0.01 0.013 0.104 0.074 0.015 4e-3 0.012-4e-3 0.104-0.074 0.012-0.016 4e-3 -0.017-0.017-0.427c-2e-3 -0.01-9e-3 -0.017-0.017-0.018zm0.265-0.113-0.013 2e-3 -0.185 0.093-0.01 0.01-3e-3 0.011 0.018 0.43 5e-3 0.012 8e-3 7e-3 0.201 0.093c0.012 4e-3 0.023 0 0.029-8e-3l4e-3 -0.014-0.034-0.614c-3e-3 -0.012-0.01-0.02-0.02-0.022zm-0.715 2e-3a0.023 0.023 0 0 0-0.027 6e-3l-6e-3 0.014-0.034 0.614c0 0.012 7e-3 0.02 0.017 0.024l0.015-2e-3 0.201-0.093 0.01-8e-3 4e-3 -0.011 0.017-0.43-3e-3 -0.012-0.01-0.01z"/>
  <path d="m8.0555 0.94294c0.42186-0.72393 1.4677-0.72393 1.8896 0l2.4451 4.1974 4.7485 1.0288c0.81845 0.17785 1.1413 1.1721 0.5835 1.7969l-3.2368 3.6226 0.48989 4.8334c0.0847 0.83409-0.76208 1.4493-1.5292 1.111l-4.4458-1.9596-4.4458 1.9596c-0.76708 0.3383-1.6139-0.27693-1.5292-1.111l0.48989-4.8334-3.2368-3.6218c-0.55886-0.62482-0.23577-1.6202 0.5835-1.7978l4.7485-1.0288z" fill="#fff" stroke-width=".87482"/>
 </g>
</svg>
