<svg xmlns="http://www.w3.org/2000/svg" width="64" height="64" viewBox="0 0 64 64">
  <defs>
    <filter id="shadow" x="-50%" y="-50%" width="200%" height="200%">
      <feDropShadow dx="1" dy="1" stdDeviation="1" flood-color="#000000" flood-opacity="0.4"/>
    </filter>
  </defs>
  <g stroke="#FF4136" stroke-width="2" fill="none" filter="url(#shadow)" stroke-linecap="round" stroke-linejoin="round">
    <path d="M32 8c8 8 0 16 0 16s8-4 8-12c0-6-8-12-8-12s-4 4-4 10"/>
    <path d="M24 32c0 6 4 10 8 12 4-2 8-6 8-12 0-4-4-6-8-12-4 6-8 8-8 12z"/>
    <path d="M16 48h32"/>
    <path d="M20 52h24"/>
    <path d="M24 56h16"/>
  </g>
</svg>